<svg xmlns="http://www.w3.org/2000/svg" width="193.77" height="58.337" viewBox="0 0 193.77 58.337"><path d="M0,32.776H0V31.26H7V34.3H2.983l.4,2.293A22.484,22.484,0,0,0,21.731,54.853l2.3.4V25.739H17.568V22.7h6.467V13.327l-1.173-.517a6.69,6.69,0,1,1,5.4,0l-1.172.517V22.7h6.466v3.038H27.088V55.25l2.3-.4A22.48,22.48,0,0,0,47.742,36.588l.4-2.292H44.121V31.26h7v1.518A25.56,25.56,0,0,1,0,32.776ZM22.061,6.64a3.5,3.5,0,1,0,3.5-3.5A3.5,3.5,0,0,0,22.061,6.64ZM179.91,32.73c0-4.39,3.36-7.56,7.96-7.56a7.608,7.608,0,0,1,5.9,2.389l-1.72,1.68A5.484,5.484,0,0,0,188,27.56a5.172,5.172,0,1,0-.03,10.34A5.934,5.934,0,0,0,191,37.14V32.56h2.58v5.86a9.281,9.281,0,0,1-5.75,1.87C183.27,40.29,179.91,37.12,179.91,32.73ZM70,38.53l.94-2.13a8.131,8.131,0,0,0,4.85,1.62c2.29,0,3.26-.82,3.26-1.91,0-3.17-8.74-1.09-8.74-6.55,0-2.37,1.89-4.389,5.92-4.389a9.3,9.3,0,0,1,4.9,1.3l-.859,2.12a8.278,8.278,0,0,0-4.06-1.15c-2.27,0-3.191.88-3.191,1.99,0,3.13,8.72,1.09,8.72,6.49,0,2.35-1.92,4.37-5.95,4.37A9.43,9.43,0,0,1,70,38.53Zm98.47,1.55-8.11-9.949V40.08h-2.71V25.38h2.25l8.1,9.95V25.38h2.71v14.7Zm-23.82,0V25.38h2.731v14.7Zm-18.88,0V25.38H128.5V37.77h7.69V40.08Zm-13,0V25.38h2.73v14.7Zm-11.02,0-1.471-3.4H92.93l-1.451,3.4H88.67l6.611-14.7h2.69l6.629,14.7Zm-7.9-5.54h5.53L96.6,28.11Z" fill="#192940"/></svg>