<svg xmlns="http://www.w3.org/2000/svg" viewBox="0 0 226 60" width="186" height="48">
  <defs>
    <style>
      .cls-1 {
        fill: #192940;
        stroke: rgba(0,0,0,0);
      }
    </style>
  </defs>
  <path id="Union_1" data-name="Union 1" class="cls-1" d="M0,32.715V31.2H7v3.038H2.982l.4,2.293A22.484,22.484,0,0,0,21.73,54.793l2.3.4V25.679H17.567V22.64h6.467V13.267l-1.172-.516a6.69,6.69,0,1,1,5.4,0l-1.172.516V22.64h6.466v3.038H27.087V55.19l2.3-.4A22.481,22.481,0,0,0,47.741,36.528l.4-2.293H44.12V31.2h7v1.518A25.561,25.561,0,0,1,0,32.715ZM22.06,6.58a3.5,3.5,0,1,0,3.5-3.5A3.5,3.5,0,0,0,22.06,6.58ZM172.675,39.313a7.2,7.2,0,0,1-2.813-2.7,7.883,7.883,0,0,1,.01-7.77,7.283,7.283,0,0,1,2.825-2.7,8.28,8.28,0,0,1,4.021-.976,8.4,8.4,0,0,1,3.3.63,6.729,6.729,0,0,1,2.52,1.827l-1.764,1.66a5.142,5.142,0,0,0-3.927-1.723,5.507,5.507,0,0,0-2.709.662,4.767,4.767,0,0,0-1.869,1.838,5.633,5.633,0,0,0,0,5.334,4.765,4.765,0,0,0,1.869,1.837,5.507,5.507,0,0,0,2.709.661,5.115,5.115,0,0,0,3.927-1.742l1.764,1.679A6.7,6.7,0,0,1,180,39.659a8.459,8.459,0,0,1-3.307.63A8.274,8.274,0,0,1,172.675,39.313Zm-100.022.42a5.085,5.085,0,0,1-1.943-1.564L72.264,36.3a3.543,3.543,0,0,0,2.919,1.68q2.29,0,2.29-2.709v-7.6H72.243V25.38H80.2v9.743A5.343,5.343,0,0,1,78.942,39a4.935,4.935,0,0,1-3.7,1.292A6.032,6.032,0,0,1,72.653,39.733Zm145.1.347V27.689H212.88V25.38h12.474v2.309h-4.872V40.08Zm-15.96,0v-6.3h-7.6v6.3h-2.73V25.38h2.73v6.069h7.6V25.38h2.73v14.7Zm-42.714,0-1.47-3.4h-7.35l-1.449,3.4h-2.814l6.615-14.7H155.3l6.636,14.7Zm-7.9-5.544H156.7l-2.772-6.426Zm-18.8,5.544V34.934l-5.774-9.554h2.919l4.3,7.16,4.347-7.16h2.688l-5.754,9.513V40.08Zm-28.56,0-.021-9.744L98.976,38.4H97.758l-4.83-7.938V40.08h-2.6V25.38H92.57l5.838,9.743,5.733-9.743h2.247l.021,14.7Z" transform="translate(0.5 0.5)"/>
</svg>
