<svg xmlns="http://www.w3.org/2000/svg" viewBox="0 0 125 111" width="125" height="111">
	<style>
		tspan { white-space:pre }
		.shp0 { fill: #ffffff }
		.shp1 { opacity: 0.2;fill: #ffffff }
	</style>
	<path id="Anchor" class="shp0" d="M89.06,33.64c0,14.03 -11.47,25.44 -25.56,25.44c-14.09,0 -25.56,-11.41 -25.56,-25.44v-1.52h7v3.04h-4.02l0.4,2.29c1.61,9.32 8.99,16.66 18.35,18.27l2.3,0.39v-29.51h-6.47v-3.04h6.47v-9.37l-1.17,-0.52c-2.43,-1.07 -3.99,-3.46 -3.99,-6.09c0,-3.67 3,-6.66 6.69,-6.66c3.69,0 6.69,2.99 6.69,6.66c0,2.63 -1.57,5.02 -3.99,6.09l-1.17,0.52v9.37h6.47v3.04h-6.47v29.51l2.3,-0.39c9.36,-1.61 16.74,-8.95 18.35,-18.27l0.4,-2.29h-4.02v-3.04h7v1.52zM60,7.5c0,1.93 1.57,3.5 3.5,3.5c1.93,0 3.5,-1.57 3.5,-3.5c0,-1.93 -1.57,-3.5 -3.5,-3.5c-1.93,0 -3.5,1.57 -3.5,3.5z" />
	<path id="Sailing" class="shp0" d="M6.56 88.21C10.59 88.21 12.51 86.19 12.51 83.84C12.51 78.44 3.79 80.48 3.79 77.35C3.79 76.24 4.71 75.36 6.98 75.36C8.26 75.36 9.71 75.74 11.04 76.51L11.9 74.39C10.62 73.55 8.77 73.09 7 73.09C2.97 73.09 1.08 75.11 1.08 77.48C1.08 82.94 9.82 80.86 9.82 84.03C9.82 85.12 8.85 85.94 6.56 85.94C4.76 85.94 2.89 85.27 1.71 84.32L0.77 86.45C1.98 87.5 4.27 88.21 6.56 88.21ZM32.52 88L35.37 88L28.74 73.3L26.05 73.3L19.44 88L22.25 88L23.7 84.6L31.05 84.6L32.52 88ZM24.62 82.46L27.37 76.03L30.15 82.46L24.62 82.46ZM43.54 88L46.27 88L46.27 73.3L43.54 73.3L43.54 88ZM56.54 88L66.96 88L66.96 85.69L59.27 85.69L59.27 73.3L56.54 73.3L56.54 88ZM75.42 88L78.15 88L78.15 73.3L75.42 73.3L75.42 88ZM98.77 73.3L98.77 83.25L90.67 73.3L88.42 73.3L88.42 88L91.13 88L91.13 78.05L99.24 88L101.48 88L101.48 73.3L98.77 73.3ZM121.77 85.06C120.82 85.61 119.79 85.82 118.74 85.82C115.64 85.82 113.43 83.63 113.43 80.65C113.43 77.6 115.64 75.48 118.77 75.48C120.34 75.48 121.66 76.01 122.82 77.16L124.54 75.48C123.15 73.91 121.1 73.09 118.64 73.09C114.04 73.09 110.68 76.26 110.68 80.65C110.68 85.04 114.04 88.21 118.6 88.21C120.68 88.21 122.82 87.58 124.35 86.34L124.35 80.48L121.77 80.48L121.77 85.06Z" />
	<path id="1984" class="shp1" d="M32.47 102.3L32.47 103L34.28 103L34.28 110L35.08 110L35.08 102.3L32.47 102.3ZM51.41 102.23C49.92 102.23 48.78 103.16 48.78 104.6C48.78 106.01 49.85 106.91 51.38 106.91C52.45 106.91 53.35 106.44 53.73 105.59C53.75 105.82 53.77 106.04 53.77 106.22C53.77 108.31 52.7 109.37 51.04 109.37C50.47 109.37 49.94 109.27 49.54 109.01L49.22 109.65C49.71 109.94 50.36 110.07 51.05 110.07C53.14 110.07 54.57 108.7 54.57 106.08C54.57 103.65 53.46 102.23 51.41 102.23ZM51.5 106.24C50.31 106.24 49.56 105.59 49.56 104.58C49.56 103.55 50.33 102.9 51.44 102.9C52.78 102.9 53.48 103.71 53.48 104.55C53.48 105.51 52.68 106.24 51.5 106.24ZM72.22 105.96C73.02 105.65 73.46 105.07 73.46 104.27C73.46 103.01 72.37 102.23 70.74 102.23C69.11 102.23 68.04 103.01 68.04 104.27C68.04 105.07 68.47 105.65 69.25 105.96C68.3 106.28 67.77 106.93 67.77 107.85C67.77 109.22 68.89 110.07 70.74 110.07C72.58 110.07 73.73 109.22 73.73 107.85C73.73 106.94 73.19 106.28 72.22 105.96ZM68.84 104.29C68.84 103.43 69.57 102.9 70.74 102.9C71.89 102.9 72.65 103.43 72.65 104.3C72.65 105.14 71.94 105.68 70.74 105.68C69.54 105.68 68.84 105.14 68.84 104.29ZM70.74 109.39C69.37 109.39 68.57 108.8 68.57 107.84C68.57 106.9 69.37 106.3 70.74 106.3C72.1 106.3 72.92 106.9 72.92 107.84C72.92 108.8 72.1 109.39 70.74 109.39ZM93.48 107.27L91.94 107.27L91.94 105.49L91.17 105.49L91.17 107.27L87.82 107.27L91.76 102.3L90.88 102.3L86.8 107.4L86.8 107.98L91.14 107.98L91.14 110L91.94 110L91.94 107.98L93.48 107.98L93.48 107.27Z" />
</svg>
