<svg xmlns="http://www.w3.org/2000/svg" viewBox="0 0 59.985 56.016" width="60px" height="56px">
  <defs>
    <style>
      .cls-1 {
        fill: #d01f25;
      }
    </style>
  </defs>
  <path id="repair-care" data-name="repair-care" class="cls-1" d="M1358.524,4010.008a.979.979,0,0,1-.978-.979v-2.468a15.128,15.128,0,0,1-1.874-.773l-1.761,1.752a.979.979,0,0,1-1.38,0l-5.378-5.347a.978.978,0,0,1,0-1.388l1.756-1.745a14.658,14.658,0,0,1-.773-1.853h-2.491a.979.979,0,0,1-.978-.979v-.348h-8.182a.978.978,0,0,1-.977-.978v-3.117a17.838,17.838,0,0,1-2.495-1.03l-2.224,2.211a.977.977,0,0,1-1.379,0l-6.477-6.438a.98.98,0,0,1,0-1.388l2.219-2.205a17.579,17.579,0,0,1-1.032-2.47h-3.143a.978.978,0,0,1-.978-.979v-9.1a.978.978,0,0,1,.978-.978h3.143a17.579,17.579,0,0,1,1.032-2.47l-2.219-2.2a.98.98,0,0,1,0-1.388l6.477-6.438a.979.979,0,0,1,1.379,0l2.224,2.211a17.833,17.833,0,0,1,2.495-1.029v-3.118a.979.979,0,0,1,.977-.978h9.16a.979.979,0,0,1,.978.978v3.118a17.869,17.869,0,0,1,2.494,1.029l2.224-2.211a.979.979,0,0,1,1.379,0l1.58,1.571a.978.978,0,0,1-1.379,1.388l-.891-.885-2.046,2.033a.978.978,0,0,1-1.165.161,15.808,15.808,0,0,0-3.438-1.418.978.978,0,0,1-.714-.942v-2.864h-7.2v2.864a.978.978,0,0,1-.715.942,15.807,15.807,0,0,0-3.438,1.418.978.978,0,0,1-1.165-.161l-2.046-2.033-5.089,5.058,2.037,2.024a.98.98,0,0,1,.163,1.176,15.579,15.579,0,0,0-1.425,3.414.978.978,0,0,1-.941.711h-2.888v7.147h2.888a.978.978,0,0,1,.941.711,15.6,15.6,0,0,0,1.425,3.416.977.977,0,0,1-.163,1.174l-2.037,2.025,5.089,5.058,2.046-2.034a.978.978,0,0,1,1.165-.16,15.852,15.852,0,0,0,3.438,1.417.98.98,0,0,1,.715.943v2.864h7.2v-5.254a.978.978,0,0,1,.978-.978h2.491a14.682,14.682,0,0,1,.773-1.853l-1.756-1.746a.978.978,0,0,1,0-1.388l5.379-5.347a.979.979,0,0,1,1.379,0l1.762,1.753a14.846,14.846,0,0,1,1.874-.773v-2.469a.978.978,0,0,1,.977-.978h1.651v-3.529h-2.888a.979.979,0,0,1-.941-.711,15.627,15.627,0,0,0-1.425-3.414.98.98,0,0,1,.162-1.176l2.037-2.025-.584-.581a.978.978,0,0,1,1.379-1.389l1.282,1.275a.978.978,0,0,1,0,1.388l-2.218,2.2a17.607,17.607,0,0,1,1.031,2.47h3.143a.979.979,0,0,1,.978.979v4.507h4a.978.978,0,0,1,.978.978v2.469a14.811,14.811,0,0,1,1.872.773l1.764-1.753a.979.979,0,0,1,1.379,0l5.378,5.347a.978.978,0,0,1,0,1.388l-1.757,1.746a14.845,14.845,0,0,1,.773,1.853h2.491a.978.978,0,0,1,.977.978v7.559a.979.979,0,0,1-.978.979h-2.49a14.956,14.956,0,0,1-.773,1.852l1.757,1.746a.978.978,0,0,1,0,1.388l-5.379,5.347a.978.978,0,0,1-1.378,0l-1.764-1.752a15.045,15.045,0,0,1-1.872.773v2.468a.979.979,0,0,1-.978.979Zm-2.555-6.274a13.056,13.056,0,0,0,2.819,1.162.978.978,0,0,1,.715.942v2.212h5.65v-2.212a.978.978,0,0,1,.714-.942,13.03,13.03,0,0,0,2.819-1.162.977.977,0,0,1,1.165.16l1.583,1.573,3.991-3.967-1.574-1.564a.977.977,0,0,1-.162-1.176,12.816,12.816,0,0,0,1.168-2.8.978.978,0,0,1,.941-.713h2.232v-5.6H1375.8a.978.978,0,0,1-.941-.711,12.818,12.818,0,0,0-1.168-2.8.977.977,0,0,1,.162-1.175l1.574-1.564-3.991-3.967L1369.85,3981a.978.978,0,0,1-1.164.161,12.97,12.97,0,0,0-2.819-1.162.979.979,0,0,1-.714-.942v-2.214h-5.65v2.214a.978.978,0,0,1-.716.942,12.969,12.969,0,0,0-2.819,1.162.979.979,0,0,1-1.165-.161l-1.582-1.573-3.99,3.967,1.573,1.564a.98.98,0,0,1,.162,1.175,12.765,12.765,0,0,0-1.168,2.8.978.978,0,0,1-.941.711h-2.232v5.6h2.232a.978.978,0,0,1,.941.712,12.75,12.75,0,0,0,1.168,2.8.98.98,0,0,1-.162,1.176l-1.573,1.563,3.99,3.967,1.582-1.572a.977.977,0,0,1,1.166-.16Zm-.84-11.285a7.2,7.2,0,1,1,7.2,7.182A7.2,7.2,0,0,1,1355.128,3992.449Zm1.956,0a5.242,5.242,0,1,0,5.242-5.224A5.239,5.239,0,0,0,1357.085,3992.449Zm-24.487-17.514a8.468,8.468,0,1,1,8.468,8.448A8.467,8.467,0,0,1,1332.6,3974.936Zm1.956,0a6.512,6.512,0,1,0,6.511-6.49A6.508,6.508,0,0,0,1334.554,3974.936Z" transform="translate(-1320 -3953.992)"/>
</svg>
