<svg xmlns="http://www.w3.org/2000/svg" width="60" height="60" viewBox="0 0 60 60">
    <defs>
        <style>.a{fill:#d01f25;}.b{fill:none;}</style>
    </defs>
    <path class="a"
          d="M1358.532,4010a.978.978,0,0,1-.978-.978v-2.468a15.179,15.179,0,0,1-1.874-.772l-1.761,1.751a.979.979,0,0,1-1.38,0l-5.379-5.346a.978.978,0,0,1,0-1.388l1.756-1.745a14.654,14.654,0,0,1-.773-1.853h-2.491a.979.979,0,0,1-.978-.978v-.348h-8.184a.978.978,0,0,1-.977-.978v-3.116a17.9,17.9,0,0,1-2.5-1.03l-2.224,2.211a.978.978,0,0,1-1.379,0l-6.478-6.437a.98.98,0,0,1,0-1.388l2.219-2.2a17.553,17.553,0,0,1-1.032-2.469h-3.143a.978.978,0,0,1-.978-.979v-9.1a.978.978,0,0,1,.978-.978h3.144a17.554,17.554,0,0,1,1.032-2.47l-2.219-2.2a.98.98,0,0,1,0-1.388l6.478-6.437a.98.98,0,0,1,1.379,0l2.224,2.21a17.875,17.875,0,0,1,2.5-1.029v-3.117a.979.979,0,0,1,.977-.978h9.162a.979.979,0,0,1,.978.978v3.117a17.873,17.873,0,0,1,2.495,1.029l2.224-2.211a.98.98,0,0,1,1.379,0l1.58,1.571a.978.978,0,0,1-1.379,1.387l-.891-.885-2.047,2.032a.978.978,0,0,1-1.165.161,15.827,15.827,0,0,0-3.439-1.418.978.978,0,0,1-.714-.941v-2.863h-7.2v2.863a.978.978,0,0,1-.715.942,15.824,15.824,0,0,0-3.439,1.417.978.978,0,0,1-1.165-.16l-2.046-2.033-5.09,5.057,2.037,2.023a.98.98,0,0,1,.163,1.176,15.573,15.573,0,0,0-1.425,3.414.978.978,0,0,1-.941.711h-2.889v7.145h2.889a.978.978,0,0,1,.941.711,15.594,15.594,0,0,0,1.425,3.415.976.976,0,0,1-.163,1.174l-2.037,2.025,5.09,5.057,2.046-2.033a.978.978,0,0,1,1.165-.16,15.84,15.84,0,0,0,3.439,1.417.981.981,0,0,1,.715.943v2.864h7.2v-5.253a.978.978,0,0,1,.978-.978h2.491a14.652,14.652,0,0,1,.773-1.853l-1.756-1.746a.978.978,0,0,1,0-1.388l5.38-5.346a.98.98,0,0,1,1.379,0l1.762,1.752a14.805,14.805,0,0,1,1.874-.773v-2.468a.978.978,0,0,1,.977-.978h1.651v-3.528H1357.3a.978.978,0,0,1-.941-.711,15.622,15.622,0,0,0-1.425-3.414.979.979,0,0,1,.162-1.176l2.037-2.024-.584-.581a.979.979,0,1,1,1.379-1.389l1.282,1.275a.977.977,0,0,1,0,1.388l-2.219,2.2a17.6,17.6,0,0,1,1.031,2.47h3.144a.979.979,0,0,1,.978.979v4.506h4a.978.978,0,0,1,.978.978v2.469a14.745,14.745,0,0,1,1.872.772l1.764-1.752a.98.98,0,0,1,1.379,0l5.379,5.346a.978.978,0,0,1,0,1.388l-1.757,1.746a14.822,14.822,0,0,1,.773,1.853h2.491a.978.978,0,0,1,.977.978v7.558a.979.979,0,0,1-.978.979h-2.491a14.949,14.949,0,0,1-.773,1.852l1.757,1.745a.978.978,0,0,1,0,1.388l-5.38,5.345a.977.977,0,0,1-1.378,0l-1.764-1.752a15.064,15.064,0,0,1-1.872.772v2.468a.979.979,0,0,1-.978.979Zm-2.556-6.272a13.064,13.064,0,0,0,2.82,1.162.978.978,0,0,1,.715.942v2.211h5.651v-2.212a.978.978,0,0,1,.714-.941,13.055,13.055,0,0,0,2.819-1.162.977.977,0,0,1,1.166.16l1.583,1.573,3.992-3.966-1.574-1.563a.977.977,0,0,1-.162-1.176,12.808,12.808,0,0,0,1.168-2.8.978.978,0,0,1,.941-.712h2.233v-5.6h-2.23a.978.978,0,0,1-.941-.711,12.818,12.818,0,0,0-1.168-2.8.977.977,0,0,1,.162-1.175l1.574-1.564-3.992-3.966-1.586,1.57a.978.978,0,0,1-1.164.161,12.986,12.986,0,0,0-2.819-1.162.979.979,0,0,1-.714-.942v-2.214h-5.651v2.214a.978.978,0,0,1-.716.942,12.984,12.984,0,0,0-2.82,1.162.978.978,0,0,1-1.165-.16l-1.582-1.573-3.991,3.966,1.573,1.564a.98.98,0,0,1,.162,1.175,12.742,12.742,0,0,0-1.168,2.8.978.978,0,0,1-.941.711h-2.233v5.6h2.233a.978.978,0,0,1,.941.711,12.753,12.753,0,0,0,1.168,2.8.98.98,0,0,1-.162,1.176l-1.573,1.562,3.991,3.966,1.582-1.572a.977.977,0,0,1,1.166-.16Zm-.84-11.283a7.2,7.2,0,1,1,7.2,7.181,7.2,7.2,0,0,1-7.2-7.181Zm1.956,0a5.243,5.243,0,1,0,5.243-5.223,5.241,5.241,0,0,0-5.243,5.223Zm-24.492-17.51a8.47,8.47,0,1,1,8.47,8.446,8.468,8.468,0,0,1-8.47-8.446Zm1.956,0a6.514,6.514,0,1,0,6.512-6.488,6.511,6.511,0,0,0-6.512,6.488Z"
          transform="translate(-1319.999 -3951.998)"/>
    <rect class="b" width="60" height="60"/>
</svg>