<svg xmlns="http://www.w3.org/2000/svg" viewBox="0 0 368 22" width="368" height="22">
	<style>
		tspan { white-space:pre }
		.shp0 { fill: #ffffff } 
	</style>
	<path id="Shape 1 kopia 4" class="shp0" d="M183.5,21.99c-5.24,0 -9.5,-4.32 -9.5,-9.62v-0.57h2.6v1.15h-1.49l0.15,0.87c0.6,3.52 3.34,6.3 6.82,6.91l0.86,0.15v-11.16h-2.4v-1.15h2.4v-3.54l-0.44,-0.2c-0.9,-0.4 -1.48,-1.31 -1.48,-2.3c0,-1.39 1.12,-2.52 2.49,-2.52c1.37,0 2.49,1.13 2.49,2.52c0,0.99 -0.58,1.9 -1.48,2.3l-0.44,0.2v3.54h2.4v1.15h-2.4v11.16l0.86,-0.15c3.48,-0.61 6.22,-3.38 6.82,-6.91l0.15,-0.87h-1.49v-1.15h2.6v0.57c0,5.3 -4.26,9.62 -9.5,9.62zM181.83,2.49c0,0.94 0.75,1.7 1.67,1.7c0.92,0 1.67,-0.76 1.67,-1.7c0,-0.94 -0.75,-1.7 -1.67,-1.7c-0.92,0 -1.67,0.76 -1.67,1.7z" />
	<path id="Prostokąt 4 kopia 10" class="shp0" d="M1,17l6,-3.02v-1l-6,3.02zM13,16.01l-6,-3v0.99l6,3zM13,17l6,-3.02v-1l-6,3.02zM25,16.01l-6,-3v0.99l6,3zM25,17l6,-3.02v-1l-6,3.02zM37,16.01l-6,-3v0.99l6,3zM37,17l6,-3.02v-1l-6,3.02zM49,16.01l-6,-3v0.99l6,3zM49,17l6,-3.02v-1l-6,3.02zM61,16.01l-6,-3v0.99l6,3zM61,17l6,-3.02v-1l-6,3.02zM73,16.01l-6,-3v0.99l6,3zM73,17l6,-3.02v-1l-6,3.02zM85,16.01l-6,-3v0.99l6,3zM85,17l6,-3.02v-1l-6,3.02zM97,16.01l-6,-3v0.99l6,3zM97,17l6,-3.02v-1l-6,3.02zM109,16.01l-6,-3v0.99l6,3zM109,17l6,-3.02v-1l-6,3.02zM121,16.01l-6,-3v0.99l6,3zM121,17l6,-3.02v-1l-6,3.02zM133,16.01l-6,-3v0.99l6,3zM133,17l6,-3.02v-1l-6,3.02zM145,16.01l-6,-3v0.99l6,3z" />
	<path id="Prostokąt 4 kopia 11" class="shp0" d="M223,17l6,-3.02v-1l-6,3.02zM235,16.01l-6,-3v0.99l6,3zM235,17l6,-3.02v-1l-6,3.02zM247,16.01l-6,-3v0.99l6,3zM247,17l6,-3.02v-1l-6,3.02zM259,16.01l-6,-3v0.99l6,3zM259,17l6,-3.02v-1l-6,3.02zM271,16.01l-6,-3v0.99l6,3zM271,17l6,-3.02v-1l-6,3.02zM283,16.01l-6,-3v0.99l6,3zM283,17l6,-3.02v-1l-6,3.02zM295,16.01l-6,-3v0.99l6,3zM295,17l6,-3.02v-1l-6,3.02zM307,16.01l-6,-3v0.99l6,3zM307,17l6,-3.02v-1l-6,3.02zM319,16.01l-6,-3v0.99l6,3zM319,17l6,-3.02v-1l-6,3.02zM331,16.01l-6,-3v0.99l6,3zM331,17l6,-3.02v-1l-6,3.02zM343,16.01l-6,-3v0.99l6,3zM343,17l6,-3.02v-1l-6,3.02zM355,16.01l-6,-3v0.99l6,3zM355,17l6,-3.02v-1l-6,3.02zM367,16.01l-6,-3v0.99l6,3z" />
</svg>