<svg xmlns="http://www.w3.org/2000/svg" width="294" height="21.98" viewBox="0 0 294 21.98"><g transform="translate(-37 -0.01)"><path d="M183.5,21.99a9.573,9.573,0,0,1-9.5-9.62V11.8h2.6v1.15h-1.49l.15.87a8.442,8.442,0,0,0,6.82,6.91l.86.15V9.72h-2.4V8.57h2.4V5.03l-.44-.2a2.49,2.49,0,1,1,2.02,0l-.44.2V8.57h2.4V9.72h-2.4V20.88l.86-.15a8.431,8.431,0,0,0,6.82-6.91l.15-.87h-1.49V11.8h2.6v.57a9.573,9.573,0,0,1-9.5,9.62Zm-1.67-19.5a1.67,1.67,0,1,0,3.34,0,1.67,1.67,0,1,0-3.34,0Z" fill="#fff"/><path d="M37,17l6-3.02v-1L37,16Zm12-.99-6-3V14l6,3ZM49,17l6-3.02v-1L49,16Zm12-.99-6-3V14l6,3ZM61,17l6-3.02v-1L61,16Zm12-.99-6-3V14l6,3ZM73,17l6-3.02v-1L73,16Zm12-.99-6-3V14l6,3ZM85,17l6-3.02v-1L85,16Zm12-.99-6-3V14l6,3ZM97,17l6-3.02v-1L97,16Zm12-.99-6-3V14l6,3Zm0,.99,6-3.02v-1L109,16Zm12-.99-6-3V14l6,3Zm0,.99,6-3.02v-1L121,16Zm12-.99-6-3V14l6,3Zm0,.99,6-3.02v-1L133,16Zm12-.99-6-3V14l6,3Z" fill="#fff"/><path d="M223,17l6-3.02v-1L223,16Zm12-.99-6-3V14l6,3Zm0,.99,6-3.02v-1L235,16Zm12-.99-6-3V14l6,3Zm0,.99,6-3.02v-1L247,16Zm12-.99-6-3V14l6,3Zm0,.99,6-3.02v-1L259,16Zm12-.99-6-3V14l6,3Zm0,.99,6-3.02v-1L271,16Zm12-.99-6-3V14l6,3Zm0,.99,6-3.02v-1L283,16Zm12-.99-6-3V14l6,3Zm0,.99,6-3.02v-1L295,16Zm12-.99-6-3V14l6,3Zm0,.99,6-3.02v-1L307,16Zm12-.99-6-3V14l6,3Zm0,.99,6-3.02v-1L319,16Zm12-.99-6-3V14l6,3Zm0,.99v0Z" fill="#fff"/></g></svg>