<svg xmlns="http://www.w3.org/2000/svg" width="60" height="60" viewBox="0 0 60 60">
    <defs>
        <style>.a{fill:#d01f25;}.b{fill:none;}</style>
    </defs>
    <path class="a"
          d="M967.068,4010.02a.978.978,0,0,1-.977-.979v-8.18a.978.978,0,1,1,1.956,0v7.2h13.735v-19.191h-5.9c.006.348.011.7.011,1.052a.978.978,0,1,1-1.955,0c0-.354-.005-.7-.011-1.052h-5.878v7.459a.978.978,0,0,1-1.955,0v-8.438a.979.979,0,0,1,.978-.979h4.183c-.162-.7-.353-1.675-.516-2.908-.242.01-.483.016-.727.016a16.916,16.916,0,0,1-5.166-.8l-22.564,22.507a.98.98,0,0,1-.69.286.946.946,0,0,1-.139-.01l-8.661-1.237a.979.979,0,0,1-.834-.86l-.93-8.332a.981.981,0,0,1,.281-.8l4.453-4.441a.977.977,0,0,1,1.38,0l1.3,1.292,2.047-2.043-1.29-1.287a.978.978,0,0,1,0-1.386l2.6-2.591a.978.978,0,0,1,1.381,0l1.294,1.292,3.346-3.338-1.29-1.288a.98.98,0,0,1,0-1.386l7.33-7.312a17,17,0,1,1,21.653,10.825c.138,1.218.245,2.488.311,3.806h6.941a.978.978,0,0,1,.978.979v21.148a.979.979,0,0,1-.978.98Zm-13.627-26.379a.979.979,0,0,1,0,1.385l-18.163,18.118,5.968.852,21.611-21.558a17.053,17.053,0,0,1-4.112-2.7l-2.17,2.165a.979.979,0,1,1-1.381-1.387l2.164-2.159a17.067,17.067,0,0,1-2.719-4.094l-6.041,6.026,1.29,1.288a.979.979,0,0,1,0,1.387l-4.731,4.719a.977.977,0,0,1-1.38,0l-1.3-1.291-1.212,1.209,1.29,1.288a.98.98,0,0,1,0,1.386l-3.433,3.424a.978.978,0,0,1-1.381,0l-1.294-1.291-3.43,3.42.684,6.123,18.353-18.306a.978.978,0,0,1,1.383,0Zm19.242.169a27.56,27.56,0,0,0,.581,3.1h.594c-.058-1.129-.147-2.223-.26-3.276-.3.069-.607.126-.915.176Zm-17.715-16.8a15.078,15.078,0,0,0,9.8,14.112.954.954,0,0,1,.3.108,15.034,15.034,0,0,0,8.284.458c-.283-2-.648-3.825-1.045-5.466a9.5,9.5,0,1,1,6.443-12.91.978.978,0,1,1-1.8.763,7.537,7.537,0,1,0-6.944,10.481,7.377,7.377,0,0,0,1.8-.225q-.143-.52-.289-1a2.963,2.963,0,1,1,1.863-.6q.129.428.257.878a7.553,7.553,0,0,0,3.719-4.939.978.978,0,1,1,1.908.427,9.466,9.466,0,0,1-5.111,6.459c.41,1.67.79,3.536,1.088,5.572a15.051,15.051,0,1,0-20.278-14.116Zm15.631,3.35a1,1,0,0,0,.314.729.976.976,0,0,1,1.676-.533,1.038,1.038,0,0,0,.019-.194,1,1,0,0,0-2.009,0Zm7.92,34.063-1.478-3.332h-3.7a.981.981,0,0,1-.223-.027l-1.489,3.359a.978.978,0,1,1-1.787-.794l4.342-9.786a.977.977,0,0,1,1.787,0l4.341,9.785a.978.978,0,1,1-1.788.794Zm-4.549-5.289h2.2l-1.1-2.482Z"
          transform="translate(-929.018 -3950.023)"/>
    <rect class="b" width="60" height="60"/>
</svg>