<svg xmlns="http://www.w3.org/2000/svg" viewBox="0 0 60 47.71" widht="60px" height="48px">
  <defs>
    <style>
      .cls-1 {
        fill: #d01f25;
      }
    </style>
  </defs>
  <path id="yacht-sales" data-name="yacht-sales" class="cls-1" d="M580.544,4009.906a.978.978,0,1,1,0-1.955h8.013v-13.58a1.886,1.886,0,0,1-1.413.2l-3.391-.863-3.391.863a1.856,1.856,0,0,1-.456.056,1.88,1.88,0,0,1-1.311-.53l-2.5-2.438-3.368-.946a1.88,1.88,0,0,1-1.294-1.293l-.562-2H541.957v20.522h32.926a.978.978,0,1,1,0,1.955h-33.9a.979.979,0,0,1-.979-.978v-22.476a.979.979,0,0,1,.979-.978h4.411v-4.316a.978.978,0,0,1,.978-.978h21.606l.45-1.765-.862-3.382a1.882,1.882,0,0,1,.474-1.769l2.442-2.5.948-3.361a1.88,1.88,0,0,1,1.294-1.293l3.368-.945,2.5-2.438a1.882,1.882,0,0,1,1.767-.473l3.391.862,3.391-.862a1.882,1.882,0,0,1,1.766.472l2.5,2.439,3.369.945a1.882,1.882,0,0,1,1.294,1.294l.948,3.36,2.442,2.5a1.882,1.882,0,0,1,.474,1.769l-.863,3.382.863,3.382a1.88,1.88,0,0,1-.474,1.768l-2.442,2.5-.947,3.36a1.88,1.88,0,0,1-.175.416v13.794a.979.979,0,0,1-.978.978h-4.412v4.315a.978.978,0,0,1-.978.978Zm10.872-18.242-.9.877v10.116h3.433v-11.7Zm-7.2.149,3.365.855,2.486-2.42a1.872,1.872,0,0,1,.8-.461l3.342-.939.94-3.335a1.884,1.884,0,0,1,.462-.8l2.424-2.48-.856-3.357a1.868,1.868,0,0,1,0-.925l.856-3.356-2.423-2.481a1.872,1.872,0,0,1-.463-.8l-.94-3.336-3.343-.938a1.875,1.875,0,0,1-.8-.462l-2.487-2.419-3.366.855a1.876,1.876,0,0,1-.922,0l-3.366-.855-2.487,2.419a1.876,1.876,0,0,1-.8.462l-3.344.938-.94,3.335a1.863,1.863,0,0,1-.462.8l-2.424,2.481.856,3.356a1.868,1.868,0,0,1,0,.925l-.856,3.357,2.424,2.48a1.875,1.875,0,0,1,.463.8l.939,3.335,3.344.939a1.869,1.869,0,0,1,.8.461l2.487,2.42,3.366-.855a1.861,1.861,0,0,1,.923,0Zm-36.868-6.339H569.9l-1.866-1.91a1.88,1.88,0,0,1-.527-1.429H547.346Zm-.978,19.139a.98.98,0,0,1-.978-.978v-12.141a.978.978,0,0,1,.979-.977h12.163a.978.978,0,0,1,.978.977v12.139a.98.98,0,0,1-.978.98Zm2.364-1.955h7.436l-3.719-3.711Zm5.1-5.093,3.719,3.712v-7.424Zm-6.488,3.712,3.719-3.712-3.719-3.711Zm5.1-5.094,3.719-3.71h-7.436Zm10.131,6.2a.978.978,0,1,1,0-1.955h16.657a.978.978,0,1,1,0,1.955Zm0-3.514a.978.978,0,1,1,0-1.956h16.657a.978.978,0,1,1,0,1.956Zm21.746-15.3a3,3,0,1,1,3,3A3,3,0,0,1,584.326,3983.568Zm1.956,0a1.044,1.044,0,1,0,1.044-1.044A1.044,1.044,0,0,0,586.283,3983.568Zm-8.324.889a.977.977,0,0,1,0-1.383l9.525-9.521a.978.978,0,1,1,1.384,1.383l-9.525,9.521a.981.981,0,0,1-1.384,0Zm-1.459-10.015a3,3,0,1,1,3,3A3,3,0,0,1,576.5,3974.441Zm1.956,0a1.044,1.044,0,1,0,1.044-1.043A1.045,1.045,0,0,0,578.456,3974.442Z" transform="translate(-540 -3962.196)"/>
</svg>
