<svg xmlns="http://www.w3.org/2000/svg" width="60" height="60" viewBox="0 0 60 60">
    <defs>
        <style>.a{fill:#d01f25;}.b{fill:none;}</style>
    </defs>
    <path class="a"
          d="M580.553,4010.187a.977.977,0,0,1-.873-.482.989.989,0,0,1,0-1,.976.976,0,0,1,.873-.483h8.015v-13.66a1.877,1.877,0,0,1-1.413.2l-3.392-.868-3.392.868a1.842,1.842,0,0,1-.456.056,1.873,1.873,0,0,1-1.312-.533l-2.5-2.453-3.369-.952a1.886,1.886,0,0,1-1.294-1.3l-.562-2.012h-28.92v20.643h32.933a.977.977,0,0,1,.873.483.989.989,0,0,1,0,1,.977.977,0,0,1-.873.482H540.983a.982.982,0,0,1-.979-.984v-22.609a.982.982,0,0,1,.979-.984H545.4v-4.341a.981.981,0,0,1,.978-.984h21.611l.45-1.775-.862-3.4a1.9,1.9,0,0,1,.474-1.779l2.443-2.515.948-3.381a1.885,1.885,0,0,1,1.294-1.3l3.369-.95,2.5-2.452a1.875,1.875,0,0,1,1.768-.475l3.392.867,3.392-.867a1.876,1.876,0,0,1,1.766.475l2.5,2.453,3.37.951a1.889,1.889,0,0,1,1.294,1.3l.948,3.38,2.443,2.515a1.9,1.9,0,0,1,.474,1.779l-.863,3.4.863,3.4a1.9,1.9,0,0,1-.474,1.778l-2.443,2.515-.947,3.38a1.886,1.886,0,0,1-.175.418v13.875a.982.982,0,0,1-.978.984h-4.413v4.34a.981.981,0,0,1-.978.984Zm10.874-18.35-.9.882V4002.9h3.434v-11.769Zm-7.2.15,3.366.86,2.487-2.434a1.864,1.864,0,0,1,.8-.464l3.343-.945.94-3.355a1.9,1.9,0,0,1,.462-.8l2.425-2.494-.856-3.377a1.891,1.891,0,0,1,0-.931l.856-3.376-2.424-2.5a1.889,1.889,0,0,1-.463-.8l-.94-3.355-3.344-.944a1.87,1.87,0,0,1-.8-.464l-2.487-2.433-3.367.86a1.858,1.858,0,0,1-.922,0l-3.367-.86-2.488,2.433a1.867,1.867,0,0,1-.8.465l-3.345.943-.94,3.355a1.877,1.877,0,0,1-.462.8l-2.425,2.5.856,3.376a1.891,1.891,0,0,1,0,.931l-.856,3.377,2.425,2.495a1.888,1.888,0,0,1,.463.8L573.3,3989l3.345.945a1.86,1.86,0,0,1,.8.464l2.487,2.434,3.367-.86a1.853,1.853,0,0,1,.923,0Zm-36.876-6.377h22.557l-1.866-1.921a1.9,1.9,0,0,1-.527-1.437H547.348Zm-.978,19.252a.983.983,0,0,1-.978-.984v-12.212a.981.981,0,0,1,.979-.983h12.166a.981.981,0,0,1,.978.983v12.21a.983.983,0,0,1-.978.986Zm2.365-1.967h7.438l-3.72-3.733Zm5.1-5.123,3.72,3.734v-7.468Zm-6.489,3.734,3.72-3.734-3.72-3.733Zm5.1-5.124,3.72-3.732h-7.438Zm10.133,6.236a.977.977,0,0,1-.873-.482.989.989,0,0,1,0-1,.976.976,0,0,1,.873-.482h16.661a.976.976,0,0,1,.873.482.989.989,0,0,1,0,1,.977.977,0,0,1-.873.482Zm0-3.535a.984.984,0,0,1,0-1.967h16.661a.984.984,0,0,1,0,1.968Zm21.751-15.39a3,3,0,1,1,3,3.018,3.009,3.009,0,0,1-3-3.018Zm1.956,0a1.044,1.044,0,1,0,1.044-1.05,1.047,1.047,0,0,0-1.044,1.05Zm-8.326.894a.987.987,0,0,1,0-1.391l9.527-9.577a.975.975,0,0,1,1.384,0,.988.988,0,0,1,0,1.391l-9.527,9.577a.977.977,0,0,1-1.384,0Zm-1.459-10.074a3,3,0,1,1,3,3.017,3.009,3.009,0,0,1-3-3.017Zm1.956,0a1.044,1.044,0,1,0,1.044-1.049,1.047,1.047,0,0,0-1.044,1.049Z"
          transform="translate(-540.004 -3956.188)"/>
    <rect class="b" width="60" height="60"/>
</svg>