<svg xmlns="http://www.w3.org/2000/svg" viewBox="0 0 55.975 60" width="56px" height="60px">
  <defs>
    <style>
      .cls-1 {
        fill: #d01f25;
      }
    </style>
  </defs>
  <path id="yacht-rental" data-name="yacht-rental" class="cls-1" d="M967.06,4010a.978.978,0,0,1-.977-.979v-8.177a.978.978,0,1,1,1.955,0v7.2H981.77v-19.185h-5.9c.006.348.011.7.011,1.052a.978.978,0,1,1-1.955,0c0-.354-.005-.7-.011-1.052h-5.877v7.457a.978.978,0,0,1-1.955,0v-8.436a.979.979,0,0,1,.978-.979h4.182c-.162-.7-.353-1.674-.516-2.907-.242.01-.483.016-.727.016a16.921,16.921,0,0,1-5.165-.8l-22.559,22.5a.979.979,0,0,1-.69.286.949.949,0,0,1-.139-.01l-8.659-1.237a.979.979,0,0,1-.834-.86l-.93-8.329a.981.981,0,0,1,.281-.8l4.452-4.44a.977.977,0,0,1,1.38,0l1.3,1.292,2.047-2.042-1.29-1.287a.978.978,0,0,1,0-1.386l2.6-2.59a.978.978,0,0,1,1.381,0l1.294,1.292,3.345-3.337-1.29-1.287a.98.98,0,0,1,0-1.386l7.328-7.309A16.992,16.992,0,1,1,975.5,3983.1c.138,1.218.245,2.487.311,3.805h6.94a.978.978,0,0,1,.978.978v21.141a.978.978,0,0,1-.978.979Zm-13.624-26.37a.979.979,0,0,1,0,1.384l-18.159,18.112,5.967.852,21.606-21.551a17.046,17.046,0,0,1-4.111-2.7l-2.17,2.164a.978.978,0,1,1-1.381-1.386l2.164-2.158a17.061,17.061,0,0,1-2.718-4.092l-6.04,6.024,1.29,1.287a.978.978,0,0,1,0,1.386l-4.73,4.718a.977.977,0,0,1-1.38,0l-1.3-1.291-1.212,1.209,1.29,1.287a.98.98,0,0,1,0,1.386l-3.432,3.423a.978.978,0,0,1-1.381,0l-1.294-1.291-3.429,3.419.684,6.121,18.349-18.3a.978.978,0,0,1,1.383,0Zm19.238.169a27.574,27.574,0,0,0,.581,3.1h.594c-.058-1.129-.147-2.222-.26-3.275C973.286,3983.693,972.982,3983.75,972.674,3983.8ZM954.963,3967a15.073,15.073,0,0,0,9.8,14.107.962.962,0,0,1,.3.108,15.037,15.037,0,0,0,8.282.458c-.283-2-.648-3.824-1.045-5.464a9.494,9.494,0,1,1,6.442-12.906.978.978,0,1,1-1.8.763A7.535,7.535,0,1,0,970,3974.543a7.369,7.369,0,0,0,1.805-.225q-.145-.519-.291-1a2.962,2.962,0,1,1,1.862-.6c.086.285.172.578.257.878a7.553,7.553,0,0,0,3.718-4.938.978.978,0,1,1,1.908.427,9.462,9.462,0,0,1-5.11,6.457c.41,1.67.79,3.535,1.088,5.57A15.046,15.046,0,1,0,954.963,3967Zm15.628,3.349a1,1,0,0,0,.314.728.976.976,0,0,1,1.676-.533,1.034,1.034,0,0,0,.019-.194,1,1,0,1,0-2.009,0Zm7.918,34.052-1.478-3.331h-3.7a.97.97,0,0,1-.223-.027l-1.489,3.358a.978.978,0,1,1-1.787-.794l4.341-9.782a.977.977,0,0,1,1.787,0l4.34,9.782a.978.978,0,1,1-1.787.794Zm-4.548-5.287h2.2l-1.1-2.481Z" transform="translate(-931.019 -3950)"/>
</svg>
